<?xml version="1.0" encoding="utf-8"?>
<!-- Generator: Adobe Illustrator 28.2.0, SVG Export Plug-In . SVG Version: 6.00 Build 0)  -->
<svg version="1.1" id="Layer_1" xmlns="http://www.w3.org/2000/svg" xmlns:xlink="http://www.w3.org/1999/xlink" x="0px" y="0px"
	 viewBox="0 0 24 24" style="enable-background:new 0 0 24 24;" xml:space="preserve">
<style type="text/css">
	.st0{fill:none;stroke:#FFFFFF;stroke-width:1.75;stroke-linecap:round;stroke-linejoin:round;}
	.st1{fill:none;stroke:#109AC7;stroke-width:1.75;stroke-linecap:round;stroke-linejoin:round;}
</style>
<path class="st0" d="M7.8,1.9h6c0.6,0,1,0.4,1,1v2c0,0.6-0.4,1-1,1h-6c-0.6,0-1-0.4-1-1v-2C6.8,2.3,7.3,1.9,7.8,1.9z"/>
<path class="st0" d="M14.8,3.9h2c1.1,0,2,0.9,2,2v1.4 M6.8,3.9h-2c-1.1,0-2,0.9-2,2v14c0,1.1,0.9,2,2,2h3.5h0.2"/>
<path class="st1" d="M19.4,22.1h-7c-1,0-1.8-0.8-1.8-1.8v-9c0-1,0.8-1.8,1.8-1.8h7c1,0,1.8,0.8,1.8,1.8v9
	C21.2,21.3,20.4,22.1,19.4,22.1z"/>
</svg>
